<?plantuml 1.2026.2?><svg xmlns="http://www.w3.org/2000/svg" xmlns:xlink="http://www.w3.org/1999/xlink" contentStyleType="text/css" data-diagram-type="DESCRIPTION" height="789px" preserveAspectRatio="none" style="width:1308px;height:789px;background:#FFFFFF;" version="1.1" viewBox="0 0 1308 789" width="1308px" zoomAndPan="magnify"><title>&lt;size:20&gt;&lt;b&gt;Med-SEAL Medical Suite&lt;/b&gt;&lt;/size&gt;
&lt;size:14&gt;System Architecture&lt;/size&gt;
</title><defs/><g><g class="title" data-source-line="9"><text fill="#000000" font-family="sans-serif" font-size="20" font-weight="bold" lengthAdjust="spacing" textLength="248.3008" x="522.9469" y="29.3359">Med-SEAL Medical Suite</text><text fill="#000000" font-family="sans-serif" font-size="14" font-weight="bold" lengthAdjust="spacing" textLength="144.7783" x="574.7081" y="47.0898">System Architecture</text><text fill="#000000" font-family="sans-serif" font-size="14" font-weight="bold" lengthAdjust="spacing" textLength="4.6143" x="644.7901" y="63.5781">&#160;</text></g><!--cluster AGENTBOX--><g class="cluster" data-qualified-name="AGENTBOX" data-source-line="57" id="ent0021"><rect fill="#FFF7ED" height="289.3" rx="4" ry="4" style="stroke:#181818;stroke-width:1;" width="776" x="7" y="494.3391"/><text fill="#000000" font-family="sans-serif" font-size="12" font-weight="bold" lengthAdjust="spacing" textLength="103.8984" x="251.3574" y="507.9407">Med-SEAL Agent</text><text fill="#000000" font-family="sans-serif" font-size="12" font-weight="bold" lengthAdjust="spacing" textLength="179.4316" x="359.2109" y="507.9407">&#8212; LangGraph Multi-Agent AI</text></g><!--entity A1--><g class="entity" data-qualified-name="AGENTBOX.A1" data-source-line="59" id="ent0022"><rect fill="#FED7AA" height="48.2656" rx="4" ry="4" style="stroke:#181818;stroke-width:0.5;" width="106.4551" x="38.77" y="560.3391"/><text fill="#000000" font-family="sans-serif" font-size="12" lengthAdjust="spacing" textLength="86.4551" x="48.77" y="581.9407">A1 Companion</text><text fill="#000000" font-family="sans-serif" font-size="12" font-style="italic" lengthAdjust="spacing" textLength="73.8281" x="48.77" y="596.0735">SEA-LION v4</text></g><!--entity A2--><g class="entity" data-qualified-name="AGENTBOX.A2" data-source-line="60" id="ent0023"><rect fill="#FED7AA" height="48.2656" rx="4" ry="4" style="stroke:#181818;stroke-width:0.5;" width="98.3926" x="154.8" y="560.3391"/><text fill="#000000" font-family="sans-serif" font-size="12" lengthAdjust="spacing" textLength="62.0625" x="164.8" y="581.9407">A2 Clinical</text><text fill="#000000" font-family="sans-serif" font-size="12" font-style="italic" lengthAdjust="spacing" textLength="78.3926" x="164.8" y="596.0735">Med-SEAL V1</text></g><!--entity A3--><g class="entity" data-qualified-name="AGENTBOX.A3" data-source-line="61" id="ent0024"><rect fill="#FED7AA" height="48.2656" rx="4" ry="4" style="stroke:#181818;stroke-width:0.5;" width="93.8281" x="263.09" y="560.3391"/><text fill="#000000" font-family="sans-serif" font-size="12" lengthAdjust="spacing" textLength="57.6973" x="273.09" y="581.9407">A3 Nudge</text><text fill="#000000" font-family="sans-serif" font-size="12" font-style="italic" lengthAdjust="spacing" textLength="73.8281" x="273.09" y="596.0735">SEA-LION v4</text></g><!--entity A4--><g class="entity" data-qualified-name="AGENTBOX.A4" data-source-line="62" id="ent0025"><rect fill="#FED7AA" height="48.2656" rx="4" ry="4" style="stroke:#181818;stroke-width:0.5;" width="93.8281" x="43.09" y="638.1091"/><text fill="#000000" font-family="sans-serif" font-size="12" lengthAdjust="spacing" textLength="67.6582" x="53.09" y="659.7107">A4 Lifestyle</text><text fill="#000000" font-family="sans-serif" font-size="12" font-style="italic" lengthAdjust="spacing" textLength="73.8281" x="53.09" y="673.8435">SEA-LION v4</text></g><!--entity A5--><g class="entity" data-qualified-name="AGENTBOX.A5" data-source-line="63" id="ent0026"><rect fill="#FED7AA" height="48.2656" rx="4" ry="4" style="stroke:#181818;stroke-width:0.5;" width="93.8281" x="147.09" y="638.1091"/><text fill="#000000" font-family="sans-serif" font-size="12" lengthAdjust="spacing" textLength="59.5723" x="157.09" y="659.7107">A5 Insight</text><text fill="#000000" font-family="sans-serif" font-size="12" font-style="italic" lengthAdjust="spacing" textLength="73.8281" x="157.09" y="673.8435">SEA-LION v4</text></g><!--entity A6--><g class="entity" data-qualified-name="AGENTBOX.A6" data-source-line="64" id="ent0027"><rect fill="#FED7AA" height="48.2656" rx="4" ry="4" style="stroke:#181818;stroke-width:0.5;" width="106.4902" x="250.75" y="638.1091"/><text fill="#000000" font-family="sans-serif" font-size="12" lengthAdjust="spacing" textLength="86.4902" x="260.75" y="659.7107">A6 Doctor CDS</text><text fill="#000000" font-family="sans-serif" font-size="12" font-style="italic" lengthAdjust="spacing" textLength="82.9336" x="260.75" y="673.8435">Qwen 3.6 Plus</text></g><!--entity PV--><g class="entity" data-qualified-name="AGENTBOX.PV" data-source-line="65" id="ent0028"><rect fill="#FDE68A" height="48.2656" rx="4" ry="4" style="stroke:#181818;stroke-width:0.5;" width="97.5664" x="204.22" y="703.3691"/><text fill="#000000" font-family="sans-serif" font-size="12" lengthAdjust="spacing" textLength="50.5605" x="214.22" y="724.9707">Pre-Visit</text><text fill="#000000" font-family="sans-serif" font-size="12" font-style="italic" lengthAdjust="spacing" textLength="77.5664" x="214.22" y="739.1035">Deterministic</text></g><!--entity GUARD--><g class="entity" data-qualified-name="AGENTBOX.GUARD" data-source-line="67" id="ent0029"><rect fill="#FEE2E2" height="34.1328" rx="4" ry="4" style="stroke:#181818;stroke-width:0.5;" width="378.418" x="372.79" y="710.4391"/><text fill="#000000" font-family="sans-serif" font-size="12" font-weight="bold" lengthAdjust="spacing" textLength="85.8047" x="382.79" y="732.0407">Safety Guards</text><text fill="#000000" font-family="sans-serif" font-size="12" lengthAdjust="spacing" textLength="268.8164" x="472.3916" y="732.0407">&#8212; Rule-based (21 patterns) + SEA-Guard LLM</text></g><!--entity CF--><g class="entity" data-qualified-name="CF" data-source-line="15" id="ent0002"><path d="M707.1277,97.2598 C709.3692,91.7021 713.3714,89.7239 718.2612,94.3705 C721.5563,87.3578 725.6303,87.0188 730.3132,93.0924 C733.1822,86.3936 738.8876,85.9377 743.3481,91.3844 C747.0149,84.9152 750.8762,85.2922 755.0146,90.9299 C757.4152,83.7764 764.0199,83.5313 768.4914,88.6569 C773.5294,84.435 777.6904,84.7799 780.1335,91.4346 C784.8492,87.2281 788.6392,86.3738 791.8121,93.085 C796.4092,86.5282 800.2477,87.49 804.5968,93.3405 C809.2161,86.9228 814.8298,88.4451 817.7536,95.0532 C822.039,89.0969 827.4196,91.2109 829.8973,96.9329 C840.8099,103.0223 841.668,110.5562 831.5342,118.2609 C840.6635,125.6879 839.9559,132.3682 830.8348,139.1851 C826.765,146.0282 822.0927,145.7321 817.0985,140.2121 C813.216,145.8778 809.2194,146.8578 804.8889,140.6738 C801.7822,147.1068 797.1465,147.9998 792.4267,142.3356 C789.839,148.0099 784.634,148.7009 781.1451,143.2494 C777.1244,149.5426 772.2197,148.8182 768.2399,143.205 C765.1445,149.4975 759.2211,149.954 755.5235,143.8213 C751.5536,148.3504 746.8067,149.1999 743.6626,142.9155 C739.3399,148.6602 734.8153,148.8004 731.6075,141.8564 C727.3949,147.3793 721.0795,147.0879 718.0673,140.5129 C713.6948,146.4859 708.7667,144.6052 705.7663,139.0489 C693.6079,134.7477 692.2007,127.5725 701.7286,118.921 C692.4758,110.3237 696.6387,100.9365 707.1277,97.2598" fill="#EFF6FF" style="stroke:#181818;stroke-width:0.5;"/><text fill="#000000" font-family="sans-serif" font-size="12" font-weight="bold" lengthAdjust="spacing" textLength="64.3652" x="711.97" y="114.4807">Cloudflare</text><text fill="#000000" font-family="sans-serif" font-size="12" lengthAdjust="spacing" textLength="110.0566" x="711.97" y="128.6135">DNS / CDN / DDoS</text></g><!--entity GW--><g class="entity" data-qualified-name="GW" data-source-line="17" id="ent0003"><rect fill="#E0E7FF" height="34.1328" rx="4" ry="4" style="stroke:#181818;stroke-width:0.5;" width="363.6641" x="585.17" y="178.1491"/><text fill="#000000" font-family="sans-serif" font-size="12" font-weight="bold" lengthAdjust="spacing" textLength="92.2676" x="595.17" y="199.7507">Nginx Gateway</text><text fill="#000000" font-family="sans-serif" font-size="12" lengthAdjust="spacing" textLength="247.5996" x="691.2345" y="199.7507">&#8212; TLS + Domain Routing (*.med-seal.org)</text></g><!--entity CLINOS--><g class="entity" data-qualified-name="CLINOS" data-source-line="26" id="ent0005"><rect fill="#DBEAFE" height="62.3984" rx="4" ry="4" style="stroke:#181818;stroke-width:0.5;" width="136.8359" x="659.58" y="244.3491"/><text fill="#000000" font-family="sans-serif" font-size="12" font-weight="bold" lengthAdjust="spacing" textLength="40.9688" x="669.58" y="265.9507">ClinOS</text><text fill="#000000" font-family="sans-serif" font-size="12" lengthAdjust="spacing" textLength="116.8359" x="669.58" y="280.0835">Clinician Dashboard</text><text fill="#000000" font-family="sans-serif" font-size="12" lengthAdjust="spacing" textLength="104.373" x="669.58" y="294.2163">app.med-seal.org</text></g><!--entity CDSS--><g class="entity" data-qualified-name="CDSS" data-source-line="27" id="ent0006"><rect fill="#DBEAFE" height="76.5313" rx="4" ry="4" style="stroke:#181818;stroke-width:0.5;" width="128.5742" x="806.71" y="237.2791"/><text fill="#000000" font-family="sans-serif" font-size="12" font-weight="bold" lengthAdjust="spacing" textLength="31.7754" x="816.71" y="258.8807">CDSS</text><text fill="#000000" font-family="sans-serif" font-size="12" lengthAdjust="spacing" textLength="95.8887" x="816.71" y="273.0135">Clinical Decision</text><text fill="#000000" font-family="sans-serif" font-size="12" lengthAdjust="spacing" textLength="45.7852" x="816.71" y="287.1463">Support</text><text fill="#000000" font-family="sans-serif" font-size="12" lengthAdjust="spacing" textLength="108.5742" x="816.71" y="301.2791">cdss.med-seal.org</text></g><!--entity SSO--><g class="entity" data-qualified-name="SSO" data-source-line="28" id="ent0007"><rect fill="#E0E7FF" height="48.2656" rx="4" ry="4" style="stroke:#181818;stroke-width:0.5;" width="110.709" x="945.65" y="251.4091"/><text fill="#000000" font-family="sans-serif" font-size="12" font-weight="bold" lengthAdjust="spacing" textLength="46.2891" x="955.65" y="273.0107">SSO-v2</text><text fill="#000000" font-family="sans-serif" font-size="12" lengthAdjust="spacing" textLength="90.709" x="955.65" y="287.1435">2FA + Singpass</text></g><!--entity MAPP--><g class="entity" data-qualified-name="MAPP" data-source-line="29" id="ent0008"><rect fill="#DCFCE7" height="62.3984" rx="4" ry="4" style="stroke:#181818;stroke-width:0.5;" width="157.7539" x="1066.12" y="244.3491"/><text fill="#000000" font-family="sans-serif" font-size="12" font-weight="bold" lengthAdjust="spacing" textLength="85.9395" x="1076.12" y="265.9507">Medplum App</text><text fill="#000000" font-family="sans-serif" font-size="12" lengthAdjust="spacing" textLength="68.0449" x="1076.12" y="280.0835">FHIR Admin</text><text fill="#000000" font-family="sans-serif" font-size="12" lengthAdjust="spacing" textLength="137.7539" x="1076.12" y="294.2163">medplum.med-seal.org</text></g><!--entity API--><g class="entity" data-qualified-name="API" data-source-line="41" id="ent0012"><rect fill="#DBEAFE" height="62.3984" rx="4" ry="4" style="stroke:#181818;stroke-width:0.5;" width="130.9824" x="662.51" y="368.8791"/><text fill="#000000" font-family="sans-serif" font-size="12" font-weight="bold" lengthAdjust="spacing" textLength="60.5508" x="672.51" y="390.4807">AI Service</text><text fill="#000000" font-family="sans-serif" font-size="12" lengthAdjust="spacing" textLength="110.9824" x="672.51" y="404.6135">Express.js Backend</text><text fill="#000000" font-family="sans-serif" font-size="12" lengthAdjust="spacing" textLength="100.2891" x="672.51" y="418.7463">api.med-seal.org</text></g><!--entity FHIR--><g class="entity" data-qualified-name="FHIR" data-source-line="42" id="ent0013"><rect fill="#DCFCE7" height="62.3984" rx="4" ry="4" style="stroke:#181818;stroke-width:0.5;" width="147.5586" x="850.22" y="368.8791"/><text fill="#000000" font-family="sans-serif" font-size="12" font-weight="bold" lengthAdjust="spacing" textLength="109.8633" x="860.22" y="390.4807">Medplum FHIR R4</text><text fill="#000000" font-family="sans-serif" font-size="12" lengthAdjust="spacing" textLength="127.5586" x="860.22" y="404.6135">Health Data Exchange</text><text fill="#000000" font-family="sans-serif" font-size="12" lengthAdjust="spacing" textLength="102.8789" x="860.22" y="418.7463">fhir.med-seal.org</text></g><!--entity EMR--><g class="entity" data-qualified-name="EMR" data-source-line="43" id="ent0014"><rect fill="#FEF3C7" height="76.5313" rx="4" ry="4" style="stroke:#181818;stroke-width:0.5;" width="125.4395" x="1007.28" y="361.8091"/><text fill="#000000" font-family="sans-serif" font-size="12" font-weight="bold" lengthAdjust="spacing" textLength="59.1211" x="1017.28" y="383.4107">OpenEMR</text><text fill="#000000" font-family="sans-serif" font-size="12" lengthAdjust="spacing" textLength="104.7188" x="1017.28" y="397.5435">Electronic Medical</text><text fill="#000000" font-family="sans-serif" font-size="12" lengthAdjust="spacing" textLength="46.3711" x="1017.28" y="411.6763">Records</text><text fill="#000000" font-family="sans-serif" font-size="12" lengthAdjust="spacing" textLength="105.4395" x="1017.28" y="425.8091">emr.med-seal.org</text></g><g class="entity" data-qualified-name="GMN31" data-source-line="73" id="ent0032"><path d="M1140.8,562.2791 L1140.8,606.6775 A4,4 0 0 0 1144.8,610.6775 L1297.1945,610.6775 A4,4 0 0 0 1301.1945,606.6775 L1301.1945,568.2791 L1291.1945,558.2791 L1144.8,558.2791 A4,4 0 0 0 1140.8,562.2791" fill="#FEFFDD" style="stroke:#181818;stroke-width:0.5;"/><path d="M1291.1945,558.2791 L1291.1945,566.2791 A2,2 0 0 0 1293.1945,568.2791 L1301.1945,568.2791 L1291.1945,558.2791" fill="#FEFFDD" style="stroke:#181818;stroke-width:1;"/><text fill="#000000" font-family="sans-serif" font-size="12" lengthAdjust="spacing" textLength="126.2285" x="1146.8" y="574.8807">Agents query FHIR R4</text><text fill="#000000" font-family="sans-serif" font-size="12" lengthAdjust="spacing" textLength="139.3945" x="1146.8" y="589.0135">via Medplum for patient</text><text fill="#000000" font-family="sans-serif" font-size="12" lengthAdjust="spacing" textLength="97.7637" x="1146.8" y="603.1463">data (read/write)</text></g><!--entity PG--><g class="entity" data-qualified-name="PG" data-source-line="83" id="ent0034"><path d="M891.19,565.8391 C891.19,555.8391 948.0035,555.8391 948.0035,555.8391 C948.0035,555.8391 1004.817,555.8391 1004.817,565.8391 L1004.817,603.1047 C1004.817,613.1047 948.0035,613.1047 948.0035,613.1047 C948.0035,613.1047 891.19,613.1047 891.19,603.1047 L891.19,565.8391" fill="#ECFDF5" style="stroke:#181818;stroke-width:0.5;"/><path d="M891.19,565.8391 C891.19,575.8391 948.0035,575.8391 948.0035,575.8391 C948.0035,575.8391 1004.817,575.8391 1004.817,565.8391" fill="none" style="stroke:#181818;stroke-width:0.5;"/><text fill="#000000" font-family="sans-serif" font-size="12" font-weight="bold" lengthAdjust="spacing" textLength="90.5801" x="901.19" y="591.4407">PostgreSQL 16</text><text fill="#000000" font-family="sans-serif" font-size="12" lengthAdjust="spacing" textLength="93.627" x="901.19" y="605.5735">Medplum + SSO</text></g><!--entity MDB--><g class="entity" data-qualified-name="MDB" data-source-line="84" id="ent0035"><path d="M1014.99,565.8391 C1014.99,555.8391 1069.9988,555.8391 1069.9988,555.8391 C1069.9988,555.8391 1125.0076,555.8391 1125.0076,565.8391 L1125.0076,603.1047 C1125.0076,613.1047 1069.9988,613.1047 1069.9988,613.1047 C1069.9988,613.1047 1014.99,613.1047 1014.99,603.1047 L1014.99,565.8391" fill="#ECFDF5" style="stroke:#181818;stroke-width:0.5;"/><path d="M1014.99,565.8391 C1014.99,575.8391 1069.9988,575.8391 1069.9988,575.8391 C1069.9988,575.8391 1125.0076,575.8391 1125.0076,565.8391" fill="none" style="stroke:#181818;stroke-width:0.5;"/><text fill="#000000" font-family="sans-serif" font-size="12" font-weight="bold" lengthAdjust="spacing" textLength="90.0176" x="1024.99" y="591.4407">MariaDB 10.11</text><text fill="#000000" font-family="sans-serif" font-size="12" lengthAdjust="spacing" textLength="55.4355" x="1024.99" y="605.5735">OpenEMR</text></g><!--entity RD--><g class="entity" data-qualified-name="RD" data-source-line="85" id="ent0036"><path d="M815.09,565.8391 C815.09,555.8391 848.0002,555.8391 848.0002,555.8391 C848.0002,555.8391 880.9103,555.8391 880.9103,565.8391 L880.9103,603.1047 C880.9103,613.1047 848.0002,613.1047 848.0002,613.1047 C848.0002,613.1047 815.09,613.1047 815.09,603.1047 L815.09,565.8391" fill="#ECFDF5" style="stroke:#181818;stroke-width:0.5;"/><path d="M815.09,565.8391 C815.09,575.8391 848.0002,575.8391 848.0002,575.8391 C848.0002,575.8391 880.9103,575.8391 880.9103,565.8391" fill="none" style="stroke:#181818;stroke-width:0.5;"/><text fill="#000000" font-family="sans-serif" font-size="12" font-weight="bold" lengthAdjust="spacing" textLength="45.8203" x="825.09" y="591.4407">Redis 7</text><text fill="#000000" font-family="sans-serif" font-size="12" lengthAdjust="spacing" textLength="35.209" x="825.09" y="605.5735">Cache</text></g><!--link CF to GW--><g class="link" data-entity-1="ent0002" data-entity-2="ent0003" data-link-type="dependency" data-source-line="19" id="lnk4"><path d="M767,146.3891 C767,157.0491 767,162.7991 767,171.9891" fill="none" id="CF-to-GW" style="stroke:#181818;stroke-width:1;"/><polygon fill="#181818" points="767,177.9891,771,168.9891,767,172.9891,763,168.9891,767,177.9891" style="stroke:#181818;stroke-width:1;"/><text fill="#000000" font-family="sans-serif" font-size="12" lengthAdjust="spacing" textLength="37.0898" x="768" y="166.7507">HTTPS</text></g><!--link GW to CLINOS--><g class="link" data-entity-1="ent0003" data-entity-2="ent0005" data-link-type="dependency" data-source-line="32" id="lnk9"><path d="M758.92,212.4391 C754.37,221.5891 751.2033,227.9276 745.8333,238.7176" fill="none" id="GW-to-CLINOS" style="stroke:#181818;stroke-width:1;"/><polygon fill="#181818" points="743.16,244.0891,750.751,237.814,745.3878,239.6128,743.589,234.2496,743.16,244.0891" style="stroke:#181818;stroke-width:1;"/></g><!--link GW to CDSS--><g class="link" data-entity-1="ent0003" data-entity-2="ent0006" data-link-type="dependency" data-source-line="33" id="lnk10"><path d="M788.8,212.6391 C798.21,219.7191 804.8476,224.7189 816.1576,233.2389" fill="none" id="GW-to-CDSS" style="stroke:#181818;stroke-width:1;"/><polygon fill="#181818" points="820.95,236.8491,816.1682,228.239,816.9564,233.8406,811.3547,234.6288,820.95,236.8491" style="stroke:#181818;stroke-width:1;"/></g><!--link GW to MAPP--><g class="link" data-entity-1="ent0003" data-entity-2="ent0008" data-link-type="dependency" data-source-line="34" id="lnk11"><path d="M949.22,205.7391 C986.74,210.7391 1025.58,218.1991 1061,229.2791 C1072.7,232.9391 1079.3175,235.5187 1090.4075,241.2387" fill="none" id="GW-to-MAPP" style="stroke:#181818;stroke-width:1;"/><polygon fill="#181818" points="1095.74,243.9891,1089.5749,236.3085,1091.2963,241.6971,1085.9077,243.4185,1095.74,243.9891" style="stroke:#181818;stroke-width:1;"/></g><!--link CLINOS to API--><g class="link" data-entity-1="ent0005" data-entity-2="ent0012" data-link-type="dependency" data-source-line="46" id="lnk15"><path d="M728,307.1491 C728,325.8591 728,343.7191 728,362.4391" fill="none" id="CLINOS-to-API" style="stroke:#181818;stroke-width:1;"/><polygon fill="#181818" points="728,368.4391,732,359.4391,728,363.4391,724,359.4391,728,368.4391" style="stroke:#181818;stroke-width:1;"/></g><!--link CDSS to API--><g class="link" data-entity-1="ent0006" data-entity-2="ent0012" data-link-type="dependency" data-source-line="47" id="lnk16"><path d="M861.06,314.0291 C856.65,325.2891 850.49,336.9691 842,345.8091 C828.76,359.5991 816.7001,367.6698 799.3901,375.6398" fill="none" id="CDSS-to-API" style="stroke:#181818;stroke-width:1;"/><polygon fill="#181818" points="793.94,378.1491,803.788,378.0184,798.4817,376.058,800.4422,370.7517,793.94,378.1491" style="stroke:#181818;stroke-width:1;"/></g><!--link SSO to API--><g class="link" data-entity-1="ent0007" data-entity-2="ent0012" data-link-type="dependency" data-source-line="48" id="lnk17"><path d="M973.06,300.1491 C963.08,307.7891 951.45,315.8191 940,321.8091 C900.52,342.4491 886.9,338.6591 845,353.8091 C828.31,359.8491 815.9873,364.468 799.3073,370.908" fill="none" id="SSO-to-API" style="stroke:#181818;stroke-width:1;"/><polygon fill="#181818" points="793.71,373.0691,803.5467,373.559,798.3744,371.2682,800.6652,366.096,793.71,373.0691" style="stroke:#181818;stroke-width:1;"/><text fill="#000000" font-family="sans-serif" font-size="12" lengthAdjust="spacing" textLength="27.6621" x="923.81" y="342.4107">Auth</text></g><!--link GW to API--><g class="link" data-entity-1="ent0003" data-entity-2="ent0012" data-link-type="dependency" data-source-line="49" id="lnk18"><path d="M682.28,212.6891 C667.28,217.2991 654.87,222.8391 650,229.2791 C625.19,262.0791 634.17,283.8491 650,321.8091 C657.56,339.9291 667.1949,351.9712 681.3549,364.6812" fill="none" id="GW-to-API" style="stroke:#181818;stroke-width:1;"/><polygon fill="#181818" points="685.82,368.6891,681.7943,359.7006,682.0991,365.3492,676.4505,365.654,685.82,368.6891" style="stroke:#181818;stroke-width:1;"/></g><!--link API to FHIR--><g class="link" data-entity-1="ent0012" data-entity-2="ent0013" data-link-type="dependency" data-source-line="50" id="lnk19"><path d="M793.81,400.0791 C811.83,400.0791 825.48,400.0791 843.92,400.0791" fill="none" id="API-to-FHIR" style="stroke:#181818;stroke-width:1;"/><polygon fill="#181818" points="849.92,400.0791,840.92,396.0791,844.92,400.0791,840.92,404.0791,849.92,400.0791" style="stroke:#181818;stroke-width:1;"/><text fill="#000000" font-family="sans-serif" font-size="12" lengthAdjust="spacing" textLength="45.2695" x="799.36" y="393.6807">FHIR R4</text></g><!--link API to EMR--><g class="link" data-entity-1="ent0012" data-entity-2="ent0014" data-link-type="dependency" data-source-line="51" id="lnk20"><path d="M756.5,368.5191 C768.66,357.3191 783.79,346.0491 800,340.1891 C820.39,332.8191 946.23,333.4791 1003,353.8091 C1008.59,355.8091 1008.8826,355.526 1014.2726,358.466" fill="none" id="API-to-EMR" style="stroke:#181818;stroke-width:1;"/><polygon fill="#181818" points="1019.54,361.3391,1013.5543,353.5179,1015.1505,358.9448,1009.7235,360.541,1019.54,361.3391" style="stroke:#181818;stroke-width:1;"/><text fill="#000000" font-family="sans-serif" font-size="12" lengthAdjust="spacing" textLength="38.7891" x="801" y="342.4107">MySQL</text></g><!--link API to AGENTBOX--><g class="link" data-entity-1="ent0012" data-entity-2="ent0021" data-link-type="dependency" data-source-line="70" id="lnk30"><path d="M735.87,431.6091 C739.1625,444.3866 743.2044,460.0722 747.4273,476.4608 C748.4831,480.558 749.5501,484.6991 750.6196,488.8496 C750.887,489.8873 751.1545,490.9255 751.4221,491.9638 C751.5559,492.4829 751.6896,493.0021 751.8234,493.5212 C751.8903,493.7807 750.46,488.2301 750.5269,488.4896" fill="none" id="API-to-AGENTBOX" style="stroke:#181818;stroke-width:1;"/><polygon fill="#181818" points="752.024,494.2998,753.6518,484.5864,750.7764,489.458,745.9048,486.5826,752.024,494.2998" style="stroke:#181818;stroke-width:1;"/><text fill="#000000" font-family="sans-serif" font-size="12" lengthAdjust="spacing" textLength="61.459" x="745.54" y="466.9407">REST / SSE</text></g><!--link AGENTBOX to GMN31--><g class="link" data-entity-1="ent0021" data-entity-2="ent0032" data-link-type="association" data-source-line="73" id="lnk33"><path d="M783.1119,501.3343 C783.1821,501.1359 783.2528,500.9376 783.324,500.7396 C783.609,499.9476 783.9021,499.1587 784.2038,498.3736 C784.807,496.8033 785.4441,495.2478 786.1169,493.7108 C791.4988,481.4154 799.16,470.3091 810,462.3391 C838.65,441.2791 1098.22,446.3891 1130,462.3391 C1169.58,482.2091 1196.33,528.3691 1210.08,557.8991" fill="none" id="AGENTBOX-GMN31" style="stroke:#181818;stroke-width:1;stroke-dasharray:7,7;"/></g><!--link FHIR to PG--><g class="link" data-entity-1="ent0013" data-entity-2="ent0034" data-link-type="dependency" data-source-line="88" id="lnk37"><path d="M928.02,431.6091 C932.57,466.1891 939.138,516.1203 943.538,549.5903" fill="none" id="FHIR-to-PG" style="stroke:#181818;stroke-width:1;"/><polygon fill="#181818" points="944.32,555.5391,947.1128,546.0945,943.6683,550.5818,939.1811,547.1372,944.32,555.5391" style="stroke:#181818;stroke-width:1;"/></g><!--link FHIR to RD--><g class="link" data-entity-1="ent0013" data-entity-2="ent0036" data-link-type="dependency" data-source-line="89" id="lnk38"><path d="M908.05,431.5491 C900.93,445.6191 892.67,462.6591 886,478.3391 C875.07,504.0591 866.3329,528.4256 859.1029,549.7956" fill="none" id="FHIR-to-RD" style="stroke:#181818;stroke-width:1;"/><polygon fill="#181818" points="857.18,555.4791,863.8533,548.2357,858.7824,550.7428,856.2753,545.6719,857.18,555.4791" style="stroke:#181818;stroke-width:1;"/></g><!--link EMR to MDB--><g class="link" data-entity-1="ent0014" data-entity-2="ent0035" data-link-type="dependency" data-source-line="90" id="lnk39"><path d="M1070,438.4291 C1070,473.1391 1070,518.0491 1070,549.4091" fill="none" id="EMR-to-MDB" style="stroke:#181818;stroke-width:1;"/><polygon fill="#181818" points="1070,555.4091,1074,546.4091,1070,550.4091,1066,546.4091,1070,555.4091" style="stroke:#181818;stroke-width:1;"/></g><!--link SSO to PG--><g class="link" data-entity-1="ent0007" data-entity-2="ent0034" data-link-type="dependency" data-source-line="91" id="lnk40"><path d="M1028.9,300.0991 C1038.66,307.6491 1049.95,315.6391 1061,321.8091 C1095.16,340.8791 1120.93,321.5091 1143,353.8091 C1166.2,387.7691 1168.45,414.0391 1143,446.3391 C1105.37,494.0991 1058.87,442.1791 1010,478.3391 C983.94,497.6291 969.0827,525.8281 959.5827,549.8981" fill="none" id="SSO-to-PG" style="stroke:#181818;stroke-width:1;"/><polygon fill="#181818" points="957.38,555.4791,964.4048,548.576,959.2156,550.8282,956.9634,545.6391,957.38,555.4791" style="stroke:#181818;stroke-width:1;"/></g><?plantuml-src pLVDRk984BxxAKgJmoQC284G6A48oS4sGU9lR3Qp1ouTky6zCTtUxdOITZNIFi8UTbvmdcIgROmWX7EG4BAxwwkkwlhgn-g9yPH8ie974ZujfSXur1E9aF0ICqqjjTsFw89aYVO4rm7xcqAziREfOXA95yQNi229seLjD4fE9NpPMUSYeegcKB_Q5IRyALziMPPcEg5mg_2iJkEgU_lO7T6e6hZs4F21XII184CJRskFtTkQ4UlEUI5URtQ3jT9q1ROCZHkXpYJT2bdMR_3pntyVyiEZmPzyWte7t6X9uJFqYQOlPFsHDbbX8h88FbKgFVEmI8YabSgSE-C0Qj1pnlZlE2Bu14H1puCpr_DQdcTP4c-My2N62R7Z9UElfJkL2lpyzt-O3GDqqH4hmZZu8jE68kULonM6Kb6IN0gvlCZLzh-XsYktRTJY4LMa4wzspN87xcUpQN0AKMjqm4uIo1ILrGK9ZJFu-Cn2gZuqVbeigOunm_wn0FQ2qaiOdmGccEQ9XOnmS8YA7mMHqPoJDDsBHH7XuM0y2U3CkNDjpptGw0Gx-Z0B7HeonGIVyo1BKo7rd8UHKk_eHUGnhK4mgJutZDw6PoDb0hpRb2YL0t5pIuutE2m5QP9XegUf0Nlt0n_iQCNGcbMnTMZ7o9vEqOwUrtFRrdVBGewLT2jStrj1etVV3VWKg7ZTWJkis9H7O4y7U6FRU2WjvCdoqHv0K6IC2PVxcgAfwl9FLJfZACaEGsPSFCASaW5vwFscKNkFK1qZppK1zpMCKPRE-I9cyb1p3Yl9y4Rr9ANS7VcvfGbkI84tN7QVEVTfA6Iavfoktb6CG3ZpNE-wbvDiarGbZT0XAy-7tGN3yvrth7nsfkDTzXafirELR1bhNCZDxvJEx-yP2pemMWTVXwV0s2RQWWC4gzfBoZNOWm-bw5iE5PD5RjgcTmrnkoz96hynko1atntFxYP_O8Wzh-qwETFtQB_79RiEFR5A2S_hPAs6XrM7WyaOdfkrMg6mRjZYj6tx0DlOvhQ1Rcrzg9VGnb7eDOopo93_tIElZ-AQC6GBglGwEOPj7iNUm80hGy4Zo9kZo1PE2Y5MBrDq3VZh2-LmVTc2QPAf4juw1fzAMdt0JfIVwr1D9RO1fZGBDz3f0q8Tj_N5GByVT22oe7eD_GmRezfGmCyIMdqaYaPmtgX3IZHgvUh2D2XqB9U5uN1KJ32_sxvZZ7CRRiEaV9wCPUAMVEc0xmOp7AY2mBKiBZI5F5z1BBP2Q5fEDWL_PLIkjzaDyCm8b0LlWHU55Z4Kn9t85BjpIKbKUv4uybvOfZKO_QUG-pUTl1gVJbCorsK2Qo8_5Kel9SKoYHyUfjYND_pPJ1u5TVeuWFGynxjvWnqHoOXpXvynb_MwmMvwHZ5euCRxC1zxY89sFaUHCAQvk67FHXhPamUzfC-ql__kEvQfxjkXnBdRQnue_Wi0?></g></svg>